# xmcd
#
# Track frame offsets:
#	150
#	12532
#	35105
#	51903
#	73397
#	91591
#	102074
#	114034
#	126616
#	138887
#
# Disc length: 2084 seconds
#
# Revision: 0
# Processed by: cddbd v1.5.2PL0 Copyright (c) Steve Scherf et al.
# Submitted via: EasyCDDAExtractor 12.1.0.1
#
DISCID=8908220a
DTITLE=Artistes varies - Je me souviens [CD 3)
DYEAR=2009
DGENRE=Chanson quebecoise
TTITLE0=Comme un million de gens
TTITLE1=La complainte du phoque en Alaska
TTITLE2=Celle qui va
TTITLE3=Un musicien parmi tant d'autres
TTITLE4=J'appelle
TTITLE5=Gens du pays
TTITLE6=Je suis cool
TTITLE7=Moi mes souliers
TTITLE8=Amene-toi chez-nous
TTITLE9=L'argent fait le bonheur
EXTD=
EXTT0=
EXTT1=
EXTT2=
EXTT3=
EXTT4=
EXTT5=
EXTT6=
EXTT7=
EXTT8=
EXTT9=
PLAYORDER=
